<svg aria-hidden="true" style="position:absolute; width:0; hight:0" xmlns="http://www.w3.org/2000/svg"
overflow="hidden">
    <defs>
        <symbol id="envelope" viewBox="0 0 32 32">
            <path d="M29 4H3C1 4 0 5 0 7v20c0 2 1 3 3 3h26c2 0 3-1 3-3V7c0-2-1-3-3-3zM12 17l-8 7V8l8 9zM6 8h20l-10 8L6 8zm7 10 3 3 3-3 7 8H6l7-8zm7-1 8-9v16l-8-7z"/>
        </symbol>
        <symbol id="mobile" viewBox="0 0 32 32">
            <path d="M24 0H6L4 2v28l2 2h18l2-2V2l-2-2zm-9 31a2 2 0 1 1 0-4 2 2 0 0 1 0 4zm9-5H6V4h18v22z"/>
        </symbol>
        <symbol id="antenna" viewBox="0 0 70 70">
            <path d="M67 48 49 30l2-10h2a5 5 0 1 0-5-3l-11 1L20 0h-2l-3 4v1l1 2a33 33 0 0 0 6 39v15H8c-3 0-6 2-6 6v2l2 1h53l1-1v-2c0-4-2-6-5-6H39v-6a33 33 0 0 0 22-4l1 2 1 1 1-1 3-3v-2ZM51 14a2 2 0 1 1 2 4 2 2 0 0 1-2-4Zm-3 7-1 7-3-3 4-4Zm-1-2-4 5-4-4 8-1Zm6 44c1 0 3 2 3 4v1H5v-1c0-2 1-4 3-4h45Zm-17-5v3H25v-3h11Zm-11-2v-9c0-3 2-5 5-5 4 0 6 2 6 5v9H25Zm14-4v-5c0-4-4-7-9-7-3 0-5 1-7 4-9-10-11-24-5-35l41 41c-6 3-14 4-20 2Zm24-1-1-2L19 6l-2-2 2-1 17 17 29 29-2 2Z" fill="#212121"/>
            <path d="M30 44a4 4 0 0 0 0 7 3 3 0 1 0 0-7Zm1 5a1 1 0 1 1-1-2 1 1 0 0 1 1 2Z" fill="#2196F3"/>
        </symbol>
        <symbol id="clock" viewBox="0 0 70 70">
           
        <symbol id="diagram" viewBox="0 0 70 70">
            
        </symbol>    
        <symbol id="astronaut" viewBox="0 0 70 70">
          
       </symbol>
       <symbol id="instagram" viewBox="0 0 32 32">
        <path d="M16 3a112 112 0 0 1 9 1l2 1 1 2 1 3a113 113 0 0 1-1 15l-1 2-2 1-3 1a113 113 0 0 1-15-1l-2-1-1-2-1-3A113 113 0 0 1 4 7l1-2 2-1 3-1h6zm0-3A117 117 0 0 0 6 1C4 1 4 2 3 3S1 4 1 6L0 9a118 118 0 0 0 1 17c0 2 1 2 2 3s1 2 3 2l3 1a117 117 0 0 0 17-1c2 0 2-1 3-2l2-3 1-3a117 117 0 0 0-1-17c0-2-1-2-2-3s-1-2-3-2l-3-1h-7z"/>
        <path d="M16 8a8 8 0 1 0 0 16 8 8 0 0 0 0-16zm0 13a5 5 0 1 1 0-10 5 5 0 0 1 0 10zM26 7a2 2 0 1 1-3 0 2 2 0 0 1 3 0z"/>
       </symbol>
       <symbol id="twitter" viewBox="0 0 32 32">
       <path d="m32 7-4 1c2-1 3-2 3-4l-4 2a7 7 0 0 0-11 6C10 12 5 9 2 5a7 7 0 0 0 2 9l-3-1c0 3 3 6 6 7a7 7 0 0 1-3 0c0 2 3 4 6 4a13 13 0 0 1-10 3 19 19 0 0 0 29-17l3-3z"/>
       </symbol>
        <symbol id="facebook" viewBox="0 0 32 32">
       <path d="M19 6h5V0h-5c-4 0-7 3-7 7v3H8v6h4v16h6V16h5l1-6h-6V7l1-1z"/>
       </symbol>
        <symbol id="linkedin" viewBox="0 0 32 32">
       <path d="M12 12h6v3c0-2 2-3 5-3 6 0 7 4 7 8v10h-6v-9c0-2 0-4-3-4s-3 2-3 4v9h-6V12zM2 12h6v18H2V12zM8 7a3 3 0 1 1-6 0 3 3 0 0 1 6 0z"/>
       </symbol>
       
    </defs>
</svg>
